The Hit List (2011) 1080P  

[img]http://img824.imageshack.us/img824/8916/posterkk.jpg[/img]

Verenigde Staten
Actie / Thriller
90 Minuten



geregisseerd door William Kaufman
met Cuba Gooding Jr., Cole Hauser en Jonathan LaPaglia


Allan Campbell (Cole Hauser) heeft een slechte dag achter de rug. Hij gaat naar een bar om zijn zijn zorgen te verdrinken. In een dronken bui raakt hij aan de praat met een mysterieuze man die zichzelf Jonas noemt (Cuba Gooding Jr.). Jonas verklapt aan hem dat hij een lijstje heeft waarop vijf mensen staan die hij dood wil hebben. Wanneer de doden zich op beginnen te stapelen en rechercheur Neil McKay (Jonathan LaPaglia) Allan op het spoor is blijkt het niet om een grap te gaan. Hij zal nu alles in het werk moeten stellen om de moorden te stoppen.

Storyline

A disgruntled man creates a hit list with a stranger during a drunken night out and must then race to try to save those he marked for extermination as the bodies begin to pile up and all fingers point to him.



Info:
---Compressie: x264 MKV
---Audio: Engels 5.1 DTS & 5.1 DD
---Subs: Custom NL
---Vertaling: Renne Rus
---Bewerking: Bradje
Format : x264HD
Source : Retail
Subtitle : Dutch subs optional


 
http://www.moviemeter.nl/film/75102  
http://www.imdb.com/title/tt1575694


TBS


Media Info


General
Complete name                    : The Hit List (2011) 1080P NL subzz\\The.Hit.List.(2011).1080P.X264.NL.SUBBED.BRADJE\\The.Hit.List.(2011).1080P.X264.NL.SUBBED.BRADJE.mkv
Format                           : Matroska
File size                        : 6.93 GiB
Duration                         : 1h 30mn
Overall bit rate                 : 11.0 Mbps
Movie name                       : The.Hit.List.2011.1080P.X264.NL.SUBBED.BRADJE
Encoded date                     : UTC 2011-04-27 14:50:06
Writing application              : mkvmerge v3.3.0 (\'Language\') built on Mar 24 2010 14:59:24
Writing library                  : libebml v0.8.0 + libmatroska v0.9.0

Video
ID                               : 1
Format                           : AVC
Format/Info                      : Advanced Video Codec
Format profile                   : High@L4.1
Format settings, CABAC           : Yes
Format settings, ReFrames        : 4 frames
Muxing mode                      : Container profile=Unknown@4.1
Codec ID                         : V_MPEG4/ISO/AVC
Duration                         : 1h 30mn
Bit rate                         : 8 631 Kbps
Nominal bit rate                 : 8 850 Kbps
Width                            : 1 920 pixels
Height                           : 1 080 pixels
Display aspect ratio             : 16/9
Frame rate                       : 23.976 fps
Resolution                       : 24 bits
Colorimetry                      : 4:2:0
Scan type                        : Progressive
Bits/(Pixel*Frame)               : 0.174
Stream size                      : 5.43 GiB (78%)
Title                            : The.Hit.List.2011.1080P.X264.NL.SUBBED.BRADJE
Writing library                  : x264 core 114 r1924 08d04a4
Encoding settings                : cabac=1 / ref=4 / deblock=1:-2:-2 / analyse=0x3:0x113 / me=umh / subme=10 / psy=1 / psy_rd=1.00:0.05 / mixed_ref=1 / me_range=32 / chroma_me=1 / trellis=2 / 8x8dct=1 / cqm=2 / deadzone=21,11 / fast_pskip=0 / chroma_qp_offset=-2 / threads=12 / sliced_threads=0 / nr=0 / decimate=1 / interlaced=0 / constrained_intra=0 / bframes=5 / b_pyramid=2 / b_adapt=2 / b_bias=0 / direct=3 / weightb=1 / open_gop=0 / weightp=2 / keyint=250 / keyint_min=23 / scenecut=40 / intra_refresh=0 / rc_lookahead=50 / rc=2pass / mbtree=1 / bitrate=8850 / ratetol=1.0 / qcomp=0.70 / qpmin=1 / qpmax=63 / qpstep=4 / cplxblur=20.0 / qblur=0.5 / vbv_maxrate=40000 / vbv_bufsize=30000 / nal_hrd=none / ip_ratio=1.40 / aq=2:1.00
Language                         : English

Audio #1
ID                               : 2
Format                           : AC-3
Format/Info                      : Audio Coding 3
Codec ID                         : A_AC3
Duration                         : 1h 30mn
Bit rate mode                    : Constant
Bit rate                         : 640 Kbps
Channel(s)                       : 6 channels
Channel positions                : Front: L C R, Surround: L R, LFE
Sampling rate                    : 48.0 KHz
Stream size                      : 413 MiB (6%)
Title                            : AC3
Language                         : English

Audio #2
ID                               : 3
Format                           : DTS
Format/Info                      : Digital Theater Systems
Codec ID                         : A_DTS
Duration                         : 1h 30mn
Bit rate mode                    : Constant
Bit rate                         : 1 510 Kbps
Channel(s)                       : 6 channels
Channel positions                : Front: L C R, Surround: L R, LFE
Sampling rate                    : 48.0 KHz
Resolution                       : 24 bits
Stream size                      : 974 MiB (14%)
Title                            : DTS
Language                         : English

Text
ID                               : 4
Format                           : UTF-8
Codec ID                         : S_TEXT/UTF8
Codec ID/Info                    : UTF-8 Plain Text
Title                            : SUBTITLES
Language                         : Dutch

